<?xml version="1.0" encoding="UTF-8" standalone="no"?>
<svg>
<metadata>built for 'TbFr2007' braille table on Sun Dec 07 11:53:15 CET 2014</metadata>
<defs>
<font horiz-adv-x="500" id="Braille-TbFr2007" vert-adv-y="">
<font-face ascent="550" descent="-200" font-family="Braille" font-stretch="normal" font-weight="normal" units-per-em="1024"/>
<missing-glyph/>
<glyph d="M 75 475 m -18, 0 a 18,18 0 1,1 36,0 a 18,18 0 1,1 -36,0 z M 75 275 m -18, 0 a 18,18 0 1,1 36,0 a 18,18 0 1,1 -36,0 z M 75 75 m -18, 0 a 18,18 0 1,1 36,0 a 18,18 0 1,1 -36,0 z M 275 475 m -18, 0 a 18,18 0 1,1 36,0 a 18,18 0 1,1 -36,0 z M 275 275 m -18, 0 a 18,18 0 1,1 36,0 a 18,18 0 1,1 -36,0 z M 275 75 m -18, 0 a 18,18 0 1,1 36,0 a 18,18 0 1,1 -36,0 z " horiz-adv-x="500" unicode=" "/>
<glyph d="M 75 475 m -75, 0 a 75,75 0 1,1 150,0 a 75,75 0 1,1 -150,0 z M 75 275 m -18, 0 a 18,18 0 1,1 36,0 a 18,18 0 1,1 -36,0 z M 75 75 m -18, 0 a 18,18 0 1,1 36,0 a 18,18 0 1,1 -36,0 z M 275 475 m -18, 0 a 18,18 0 1,1 36,0 a 18,18 0 1,1 -36,0 z M 275 275 m -18, 0 a 18,18 0 1,1 36,0 a 18,18 0 1,1 -36,0 z M 275 75 m -18, 0 a 18,18 0 1,1 36,0 a 18,18 0 1,1 -36,0 z " horiz-adv-x="500" unicode="a"/>
<glyph d="M 75 475 m -18, 0 a 18,18 0 1,1 36,0 a 18,18 0 1,1 -36,0 z M 75 275 m -75, 0 a 75,75 0 1,1 150,0 a 75,75 0 1,1 -150,0 z M 75 75 m -18, 0 a 18,18 0 1,1 36,0 a 18,18 0 1,1 -36,0 z M 275 475 m -18, 0 a 18,18 0 1,1 36,0 a 18,18 0 1,1 -36,0 z M 275 275 m -18, 0 a 18,18 0 1,1 36,0 a 18,18 0 1,1 -36,0 z M 275 75 m -18, 0 a 18,18 0 1,1 36,0 a 18,18 0 1,1 -36,0 z " horiz-adv-x="500" unicode=","/>
<glyph d="M 75 475 m -75, 0 a 75,75 0 1,1 150,0 a 75,75 0 1,1 -150,0 z M 75 275 m -75, 0 a 75,75 0 1,1 150,0 a 75,75 0 1,1 -150,0 z M 75 75 m -18, 0 a 18,18 0 1,1 36,0 a 18,18 0 1,1 -36,0 z M 275 475 m -18, 0 a 18,18 0 1,1 36,0 a 18,18 0 1,1 -36,0 z M 275 275 m -18, 0 a 18,18 0 1,1 36,0 a 18,18 0 1,1 -36,0 z M 275 75 m -18, 0 a 18,18 0 1,1 36,0 a 18,18 0 1,1 -36,0 z " horiz-adv-x="500" unicode="b"/>
<glyph d="M 75 475 m -18, 0 a 18,18 0 1,1 36,0 a 18,18 0 1,1 -36,0 z M 75 275 m -18, 0 a 18,18 0 1,1 36,0 a 18,18 0 1,1 -36,0 z M 75 75 m -75, 0 a 75,75 0 1,1 150,0 a 75,75 0 1,1 -150,0 z M 275 475 m -18, 0 a 18,18 0 1,1 36,0 a 18,18 0 1,1 -36,0 z M 275 275 m -18, 0 a 18,18 0 1,1 36,0 a 18,18 0 1,1 -36,0 z M 275 75 m -18, 0 a 18,18 0 1,1 36,0 a 18,18 0 1,1 -36,0 z " horiz-adv-x="500" unicode="'"/>
<glyph d="M 75 475 m -75, 0 a 75,75 0 1,1 150,0 a 75,75 0 1,1 -150,0 z M 75 275 m -18, 0 a 18,18 0 1,1 36,0 a 18,18 0 1,1 -36,0 z M 75 75 m -75, 0 a 75,75 0 1,1 150,0 a 75,75 0 1,1 -150,0 z M 275 475 m -18, 0 a 18,18 0 1,1 36,0 a 18,18 0 1,1 -36,0 z M 275 275 m -18, 0 a 18,18 0 1,1 36,0 a 18,18 0 1,1 -36,0 z M 275 75 m -18, 0 a 18,18 0 1,1 36,0 a 18,18 0 1,1 -36,0 z " horiz-adv-x="500" unicode="k"/>
<glyph d="M 75 475 m -18, 0 a 18,18 0 1,1 36,0 a 18,18 0 1,1 -36,0 z M 75 275 m -75, 0 a 75,75 0 1,1 150,0 a 75,75 0 1,1 -150,0 z M 75 75 m -75, 0 a 75,75 0 1,1 150,0 a 75,75 0 1,1 -150,0 z M 275 475 m -18, 0 a 18,18 0 1,1 36,0 a 18,18 0 1,1 -36,0 z M 275 275 m -18, 0 a 18,18 0 1,1 36,0 a 18,18 0 1,1 -36,0 z M 275 75 m -18, 0 a 18,18 0 1,1 36,0 a 18,18 0 1,1 -36,0 z " horiz-adv-x="500" unicode=";"/>
<glyph d="M 75 475 m -75, 0 a 75,75 0 1,1 150,0 a 75,75 0 1,1 -150,0 z M 75 275 m -75, 0 a 75,75 0 1,1 150,0 a 75,75 0 1,1 -150,0 z M 75 75 m -75, 0 a 75,75 0 1,1 150,0 a 75,75 0 1,1 -150,0 z M 275 475 m -18, 0 a 18,18 0 1,1 36,0 a 18,18 0 1,1 -36,0 z M 275 275 m -18, 0 a 18,18 0 1,1 36,0 a 18,18 0 1,1 -36,0 z M 275 75 m -18, 0 a 18,18 0 1,1 36,0 a 18,18 0 1,1 -36,0 z " horiz-adv-x="500" unicode="l"/>
<glyph d="M 75 475 m -18, 0 a 18,18 0 1,1 36,0 a 18,18 0 1,1 -36,0 z M 75 275 m -18, 0 a 18,18 0 1,1 36,0 a 18,18 0 1,1 -36,0 z M 75 75 m -18, 0 a 18,18 0 1,1 36,0 a 18,18 0 1,1 -36,0 z M 275 475 m -75, 0 a 75,75 0 1,1 150,0 a 75,75 0 1,1 -150,0 z M 275 275 m -18, 0 a 18,18 0 1,1 36,0 a 18,18 0 1,1 -36,0 z M 275 75 m -18, 0 a 18,18 0 1,1 36,0 a 18,18 0 1,1 -36,0 z " horiz-adv-x="500" unicode="^"/>
<glyph d="M 75 475 m -75, 0 a 75,75 0 1,1 150,0 a 75,75 0 1,1 -150,0 z M 75 275 m -18, 0 a 18,18 0 1,1 36,0 a 18,18 0 1,1 -36,0 z M 75 75 m -18, 0 a 18,18 0 1,1 36,0 a 18,18 0 1,1 -36,0 z M 275 475 m -75, 0 a 75,75 0 1,1 150,0 a 75,75 0 1,1 -150,0 z M 275 275 m -18, 0 a 18,18 0 1,1 36,0 a 18,18 0 1,1 -36,0 z M 275 75 m -18, 0 a 18,18 0 1,1 36,0 a 18,18 0 1,1 -36,0 z " horiz-adv-x="500" unicode="c"/>
<glyph d="M 75 475 m -18, 0 a 18,18 0 1,1 36,0 a 18,18 0 1,1 -36,0 z M 75 275 m -75, 0 a 75,75 0 1,1 150,0 a 75,75 0 1,1 -150,0 z M 75 75 m -18, 0 a 18,18 0 1,1 36,0 a 18,18 0 1,1 -36,0 z M 275 475 m -75, 0 a 75,75 0 1,1 150,0 a 75,75 0 1,1 -150,0 z M 275 275 m -18, 0 a 18,18 0 1,1 36,0 a 18,18 0 1,1 -36,0 z M 275 75 m -18, 0 a 18,18 0 1,1 36,0 a 18,18 0 1,1 -36,0 z " horiz-adv-x="500" unicode="i"/>
<glyph d="M 75 475 m -75, 0 a 75,75 0 1,1 150,0 a 75,75 0 1,1 -150,0 z M 75 275 m -75, 0 a 75,75 0 1,1 150,0 a 75,75 0 1,1 -150,0 z M 75 75 m -18, 0 a 18,18 0 1,1 36,0 a 18,18 0 1,1 -36,0 z M 275 475 m -75, 0 a 75,75 0 1,1 150,0 a 75,75 0 1,1 -150,0 z M 275 275 m -18, 0 a 18,18 0 1,1 36,0 a 18,18 0 1,1 -36,0 z M 275 75 m -18, 0 a 18,18 0 1,1 36,0 a 18,18 0 1,1 -36,0 z " horiz-adv-x="500" unicode="f"/>
<glyph d="M 75 475 m -18, 0 a 18,18 0 1,1 36,0 a 18,18 0 1,1 -36,0 z M 75 275 m -18, 0 a 18,18 0 1,1 36,0 a 18,18 0 1,1 -36,0 z M 75 75 m -75, 0 a 75,75 0 1,1 150,0 a 75,75 0 1,1 -150,0 z M 275 475 m -75, 0 a 75,75 0 1,1 150,0 a 75,75 0 1,1 -150,0 z M 275 275 m -18, 0 a 18,18 0 1,1 36,0 a 18,18 0 1,1 -36,0 z M 275 75 m -18, 0 a 18,18 0 1,1 36,0 a 18,18 0 1,1 -36,0 z " horiz-adv-x="500" unicode="/"/>
<glyph d="M 75 475 m -75, 0 a 75,75 0 1,1 150,0 a 75,75 0 1,1 -150,0 z M 75 275 m -18, 0 a 18,18 0 1,1 36,0 a 18,18 0 1,1 -36,0 z M 75 75 m -75, 0 a 75,75 0 1,1 150,0 a 75,75 0 1,1 -150,0 z M 275 475 m -75, 0 a 75,75 0 1,1 150,0 a 75,75 0 1,1 -150,0 z M 275 275 m -18, 0 a 18,18 0 1,1 36,0 a 18,18 0 1,1 -36,0 z M 275 75 m -18, 0 a 18,18 0 1,1 36,0 a 18,18 0 1,1 -36,0 z " horiz-adv-x="500" unicode="m"/>
<glyph d="M 75 475 m -18, 0 a 18,18 0 1,1 36,0 a 18,18 0 1,1 -36,0 z M 75 275 m -75, 0 a 75,75 0 1,1 150,0 a 75,75 0 1,1 -150,0 z M 75 75 m -75, 0 a 75,75 0 1,1 150,0 a 75,75 0 1,1 -150,0 z M 275 475 m -75, 0 a 75,75 0 1,1 150,0 a 75,75 0 1,1 -150,0 z M 275 275 m -18, 0 a 18,18 0 1,1 36,0 a 18,18 0 1,1 -36,0 z M 275 75 m -18, 0 a 18,18 0 1,1 36,0 a 18,18 0 1,1 -36,0 z " horiz-adv-x="500" unicode="s"/>
<glyph d="M 75 475 m -75, 0 a 75,75 0 1,1 150,0 a 75,75 0 1,1 -150,0 z M 75 275 m -75, 0 a 75,75 0 1,1 150,0 a 75,75 0 1,1 -150,0 z M 75 75 m -75, 0 a 75,75 0 1,1 150,0 a 75,75 0 1,1 -150,0 z M 275 475 m -75, 0 a 75,75 0 1,1 150,0 a 75,75 0 1,1 -150,0 z M 275 275 m -18, 0 a 18,18 0 1,1 36,0 a 18,18 0 1,1 -36,0 z M 275 75 m -18, 0 a 18,18 0 1,1 36,0 a 18,18 0 1,1 -36,0 z " horiz-adv-x="500" unicode="p"/>
<glyph d="M 75 475 m -18, 0 a 18,18 0 1,1 36,0 a 18,18 0 1,1 -36,0 z M 75 275 m -18, 0 a 18,18 0 1,1 36,0 a 18,18 0 1,1 -36,0 z M 75 75 m -18, 0 a 18,18 0 1,1 36,0 a 18,18 0 1,1 -36,0 z M 275 475 m -18, 0 a 18,18 0 1,1 36,0 a 18,18 0 1,1 -36,0 z M 275 275 m -75, 0 a 75,75 0 1,1 150,0 a 75,75 0 1,1 -150,0 z M 275 75 m -18, 0 a 18,18 0 1,1 36,0 a 18,18 0 1,1 -36,0 z " horiz-adv-x="500" unicode="´"/>
<glyph d="M 75 475 m -75, 0 a 75,75 0 1,1 150,0 a 75,75 0 1,1 -150,0 z M 75 275 m -18, 0 a 18,18 0 1,1 36,0 a 18,18 0 1,1 -36,0 z M 75 75 m -18, 0 a 18,18 0 1,1 36,0 a 18,18 0 1,1 -36,0 z M 275 475 m -18, 0 a 18,18 0 1,1 36,0 a 18,18 0 1,1 -36,0 z M 275 275 m -75, 0 a 75,75 0 1,1 150,0 a 75,75 0 1,1 -150,0 z M 275 75 m -18, 0 a 18,18 0 1,1 36,0 a 18,18 0 1,1 -36,0 z " horiz-adv-x="500" unicode="e"/>
<glyph d="M 75 475 m -18, 0 a 18,18 0 1,1 36,0 a 18,18 0 1,1 -36,0 z M 75 275 m -75, 0 a 75,75 0 1,1 150,0 a 75,75 0 1,1 -150,0 z M 75 75 m -18, 0 a 18,18 0 1,1 36,0 a 18,18 0 1,1 -36,0 z M 275 475 m -18, 0 a 18,18 0 1,1 36,0 a 18,18 0 1,1 -36,0 z M 275 275 m -75, 0 a 75,75 0 1,1 150,0 a 75,75 0 1,1 -150,0 z M 275 75 m -18, 0 a 18,18 0 1,1 36,0 a 18,18 0 1,1 -36,0 z " horiz-adv-x="500" unicode=":"/>
<glyph d="M 75 475 m -75, 0 a 75,75 0 1,1 150,0 a 75,75 0 1,1 -150,0 z M 75 275 m -75, 0 a 75,75 0 1,1 150,0 a 75,75 0 1,1 -150,0 z M 75 75 m -18, 0 a 18,18 0 1,1 36,0 a 18,18 0 1,1 -36,0 z M 275 475 m -18, 0 a 18,18 0 1,1 36,0 a 18,18 0 1,1 -36,0 z M 275 275 m -75, 0 a 75,75 0 1,1 150,0 a 75,75 0 1,1 -150,0 z M 275 75 m -18, 0 a 18,18 0 1,1 36,0 a 18,18 0 1,1 -36,0 z " horiz-adv-x="500" unicode="h"/>
<glyph d="M 75 475 m -18, 0 a 18,18 0 1,1 36,0 a 18,18 0 1,1 -36,0 z M 75 275 m -18, 0 a 18,18 0 1,1 36,0 a 18,18 0 1,1 -36,0 z M 75 75 m -75, 0 a 75,75 0 1,1 150,0 a 75,75 0 1,1 -150,0 z M 275 475 m -18, 0 a 18,18 0 1,1 36,0 a 18,18 0 1,1 -36,0 z M 275 275 m -75, 0 a 75,75 0 1,1 150,0 a 75,75 0 1,1 -150,0 z M 275 75 m -18, 0 a 18,18 0 1,1 36,0 a 18,18 0 1,1 -36,0 z " horiz-adv-x="500" unicode="*"/>
<glyph d="M 75 475 m -75, 0 a 75,75 0 1,1 150,0 a 75,75 0 1,1 -150,0 z M 75 275 m -18, 0 a 18,18 0 1,1 36,0 a 18,18 0 1,1 -36,0 z M 75 75 m -75, 0 a 75,75 0 1,1 150,0 a 75,75 0 1,1 -150,0 z M 275 475 m -18, 0 a 18,18 0 1,1 36,0 a 18,18 0 1,1 -36,0 z M 275 275 m -75, 0 a 75,75 0 1,1 150,0 a 75,75 0 1,1 -150,0 z M 275 75 m -18, 0 a 18,18 0 1,1 36,0 a 18,18 0 1,1 -36,0 z " horiz-adv-x="500" unicode="o"/>
<glyph d="M 75 475 m -18, 0 a 18,18 0 1,1 36,0 a 18,18 0 1,1 -36,0 z M 75 275 m -75, 0 a 75,75 0 1,1 150,0 a 75,75 0 1,1 -150,0 z M 75 75 m -75, 0 a 75,75 0 1,1 150,0 a 75,75 0 1,1 -150,0 z M 275 475 m -18, 0 a 18,18 0 1,1 36,0 a 18,18 0 1,1 -36,0 z M 275 275 m -75, 0 a 75,75 0 1,1 150,0 a 75,75 0 1,1 -150,0 z M 275 75 m -18, 0 a 18,18 0 1,1 36,0 a 18,18 0 1,1 -36,0 z " horiz-adv-x="500" unicode="!"/>
<glyph d="M 75 475 m -75, 0 a 75,75 0 1,1 150,0 a 75,75 0 1,1 -150,0 z M 75 275 m -75, 0 a 75,75 0 1,1 150,0 a 75,75 0 1,1 -150,0 z M 75 75 m -75, 0 a 75,75 0 1,1 150,0 a 75,75 0 1,1 -150,0 z M 275 475 m -18, 0 a 18,18 0 1,1 36,0 a 18,18 0 1,1 -36,0 z M 275 275 m -75, 0 a 75,75 0 1,1 150,0 a 75,75 0 1,1 -150,0 z M 275 75 m -18, 0 a 18,18 0 1,1 36,0 a 18,18 0 1,1 -36,0 z " horiz-adv-x="500" unicode="r"/>
<glyph d="M 75 475 m -18, 0 a 18,18 0 1,1 36,0 a 18,18 0 1,1 -36,0 z M 75 275 m -18, 0 a 18,18 0 1,1 36,0 a 18,18 0 1,1 -36,0 z M 75 75 m -18, 0 a 18,18 0 1,1 36,0 a 18,18 0 1,1 -36,0 z M 275 475 m -75, 0 a 75,75 0 1,1 150,0 a 75,75 0 1,1 -150,0 z M 275 275 m -75, 0 a 75,75 0 1,1 150,0 a 75,75 0 1,1 -150,0 z M 275 75 m -18, 0 a 18,18 0 1,1 36,0 a 18,18 0 1,1 -36,0 z " horiz-adv-x="500" unicode="¤"/>
<glyph d="M 75 475 m -75, 0 a 75,75 0 1,1 150,0 a 75,75 0 1,1 -150,0 z M 75 275 m -18, 0 a 18,18 0 1,1 36,0 a 18,18 0 1,1 -36,0 z M 75 75 m -18, 0 a 18,18 0 1,1 36,0 a 18,18 0 1,1 -36,0 z M 275 475 m -75, 0 a 75,75 0 1,1 150,0 a 75,75 0 1,1 -150,0 z M 275 275 m -75, 0 a 75,75 0 1,1 150,0 a 75,75 0 1,1 -150,0 z M 275 75 m -18, 0 a 18,18 0 1,1 36,0 a 18,18 0 1,1 -36,0 z " horiz-adv-x="500" unicode="d"/>
<glyph d="M 75 475 m -18, 0 a 18,18 0 1,1 36,0 a 18,18 0 1,1 -36,0 z M 75 275 m -75, 0 a 75,75 0 1,1 150,0 a 75,75 0 1,1 -150,0 z M 75 75 m -18, 0 a 18,18 0 1,1 36,0 a 18,18 0 1,1 -36,0 z M 275 475 m -75, 0 a 75,75 0 1,1 150,0 a 75,75 0 1,1 -150,0 z M 275 275 m -75, 0 a 75,75 0 1,1 150,0 a 75,75 0 1,1 -150,0 z M 275 75 m -18, 0 a 18,18 0 1,1 36,0 a 18,18 0 1,1 -36,0 z " horiz-adv-x="500" unicode="j"/>
<glyph d="M 75 475 m -75, 0 a 75,75 0 1,1 150,0 a 75,75 0 1,1 -150,0 z M 75 275 m -75, 0 a 75,75 0 1,1 150,0 a 75,75 0 1,1 -150,0 z M 75 75 m -18, 0 a 18,18 0 1,1 36,0 a 18,18 0 1,1 -36,0 z M 275 475 m -75, 0 a 75,75 0 1,1 150,0 a 75,75 0 1,1 -150,0 z M 275 275 m -75, 0 a 75,75 0 1,1 150,0 a 75,75 0 1,1 -150,0 z M 275 75 m -18, 0 a 18,18 0 1,1 36,0 a 18,18 0 1,1 -36,0 z " horiz-adv-x="500" unicode="g"/>
<glyph d="M 75 475 m -18, 0 a 18,18 0 1,1 36,0 a 18,18 0 1,1 -36,0 z M 75 275 m -18, 0 a 18,18 0 1,1 36,0 a 18,18 0 1,1 -36,0 z M 75 75 m -75, 0 a 75,75 0 1,1 150,0 a 75,75 0 1,1 -150,0 z M 275 475 m -75, 0 a 75,75 0 1,1 150,0 a 75,75 0 1,1 -150,0 z M 275 275 m -75, 0 a 75,75 0 1,1 150,0 a 75,75 0 1,1 -150,0 z M 275 75 m -18, 0 a 18,18 0 1,1 36,0 a 18,18 0 1,1 -36,0 z " horiz-adv-x="500" unicode="@"/>
<glyph d="M 75 475 m -75, 0 a 75,75 0 1,1 150,0 a 75,75 0 1,1 -150,0 z M 75 275 m -18, 0 a 18,18 0 1,1 36,0 a 18,18 0 1,1 -36,0 z M 75 75 m -75, 0 a 75,75 0 1,1 150,0 a 75,75 0 1,1 -150,0 z M 275 475 m -75, 0 a 75,75 0 1,1 150,0 a 75,75 0 1,1 -150,0 z M 275 275 m -75, 0 a 75,75 0 1,1 150,0 a 75,75 0 1,1 -150,0 z M 275 75 m -18, 0 a 18,18 0 1,1 36,0 a 18,18 0 1,1 -36,0 z " horiz-adv-x="500" unicode="n"/>
<glyph d="M 75 475 m -18, 0 a 18,18 0 1,1 36,0 a 18,18 0 1,1 -36,0 z M 75 275 m -75, 0 a 75,75 0 1,1 150,0 a 75,75 0 1,1 -150,0 z M 75 75 m -75, 0 a 75,75 0 1,1 150,0 a 75,75 0 1,1 -150,0 z M 275 475 m -75, 0 a 75,75 0 1,1 150,0 a 75,75 0 1,1 -150,0 z M 275 275 m -75, 0 a 75,75 0 1,1 150,0 a 75,75 0 1,1 -150,0 z M 275 75 m -18, 0 a 18,18 0 1,1 36,0 a 18,18 0 1,1 -36,0 z " horiz-adv-x="500" unicode="t"/>
<glyph d="M 75 475 m -75, 0 a 75,75 0 1,1 150,0 a 75,75 0 1,1 -150,0 z M 75 275 m -75, 0 a 75,75 0 1,1 150,0 a 75,75 0 1,1 -150,0 z M 75 75 m -75, 0 a 75,75 0 1,1 150,0 a 75,75 0 1,1 -150,0 z M 275 475 m -75, 0 a 75,75 0 1,1 150,0 a 75,75 0 1,1 -150,0 z M 275 275 m -75, 0 a 75,75 0 1,1 150,0 a 75,75 0 1,1 -150,0 z M 275 75 m -18, 0 a 18,18 0 1,1 36,0 a 18,18 0 1,1 -36,0 z " horiz-adv-x="500" unicode="q"/>
<glyph d="M 75 475 m -18, 0 a 18,18 0 1,1 36,0 a 18,18 0 1,1 -36,0 z M 75 275 m -18, 0 a 18,18 0 1,1 36,0 a 18,18 0 1,1 -36,0 z M 75 75 m -18, 0 a 18,18 0 1,1 36,0 a 18,18 0 1,1 -36,0 z M 275 475 m -18, 0 a 18,18 0 1,1 36,0 a 18,18 0 1,1 -36,0 z M 275 275 m -18, 0 a 18,18 0 1,1 36,0 a 18,18 0 1,1 -36,0 z M 275 75 m -75, 0 a 75,75 0 1,1 150,0 a 75,75 0 1,1 -150,0 z " horiz-adv-x="500" unicode="`"/>
<glyph d="M 75 475 m -75, 0 a 75,75 0 1,1 150,0 a 75,75 0 1,1 -150,0 z M 75 275 m -18, 0 a 18,18 0 1,1 36,0 a 18,18 0 1,1 -36,0 z M 75 75 m -18, 0 a 18,18 0 1,1 36,0 a 18,18 0 1,1 -36,0 z M 275 475 m -18, 0 a 18,18 0 1,1 36,0 a 18,18 0 1,1 -36,0 z M 275 275 m -18, 0 a 18,18 0 1,1 36,0 a 18,18 0 1,1 -36,0 z M 275 75 m -75, 0 a 75,75 0 1,1 150,0 a 75,75 0 1,1 -150,0 z " horiz-adv-x="500" unicode="1"/>
<glyph d="M 75 475 m -18, 0 a 18,18 0 1,1 36,0 a 18,18 0 1,1 -36,0 z M 75 275 m -75, 0 a 75,75 0 1,1 150,0 a 75,75 0 1,1 -150,0 z M 75 75 m -18, 0 a 18,18 0 1,1 36,0 a 18,18 0 1,1 -36,0 z M 275 475 m -18, 0 a 18,18 0 1,1 36,0 a 18,18 0 1,1 -36,0 z M 275 275 m -18, 0 a 18,18 0 1,1 36,0 a 18,18 0 1,1 -36,0 z M 275 75 m -75, 0 a 75,75 0 1,1 150,0 a 75,75 0 1,1 -150,0 z " horiz-adv-x="500" unicode="?"/>
<glyph d="M 75 475 m -75, 0 a 75,75 0 1,1 150,0 a 75,75 0 1,1 -150,0 z M 75 275 m -75, 0 a 75,75 0 1,1 150,0 a 75,75 0 1,1 -150,0 z M 75 75 m -18, 0 a 18,18 0 1,1 36,0 a 18,18 0 1,1 -36,0 z M 275 475 m -18, 0 a 18,18 0 1,1 36,0 a 18,18 0 1,1 -36,0 z M 275 275 m -18, 0 a 18,18 0 1,1 36,0 a 18,18 0 1,1 -36,0 z M 275 75 m -75, 0 a 75,75 0 1,1 150,0 a 75,75 0 1,1 -150,0 z " horiz-adv-x="500" unicode="2"/>
<glyph d="M 75 475 m -18, 0 a 18,18 0 1,1 36,0 a 18,18 0 1,1 -36,0 z M 75 275 m -18, 0 a 18,18 0 1,1 36,0 a 18,18 0 1,1 -36,0 z M 75 75 m -75, 0 a 75,75 0 1,1 150,0 a 75,75 0 1,1 -150,0 z M 275 475 m -18, 0 a 18,18 0 1,1 36,0 a 18,18 0 1,1 -36,0 z M 275 275 m -18, 0 a 18,18 0 1,1 36,0 a 18,18 0 1,1 -36,0 z M 275 75 m -75, 0 a 75,75 0 1,1 150,0 a 75,75 0 1,1 -150,0 z " horiz-adv-x="500" unicode="-"/>
<glyph d="M 75 475 m -75, 0 a 75,75 0 1,1 150,0 a 75,75 0 1,1 -150,0 z M 75 275 m -18, 0 a 18,18 0 1,1 36,0 a 18,18 0 1,1 -36,0 z M 75 75 m -75, 0 a 75,75 0 1,1 150,0 a 75,75 0 1,1 -150,0 z M 275 475 m -18, 0 a 18,18 0 1,1 36,0 a 18,18 0 1,1 -36,0 z M 275 275 m -18, 0 a 18,18 0 1,1 36,0 a 18,18 0 1,1 -36,0 z M 275 75 m -75, 0 a 75,75 0 1,1 150,0 a 75,75 0 1,1 -150,0 z " horiz-adv-x="500" unicode="u"/>
<glyph d="M 75 475 m -18, 0 a 18,18 0 1,1 36,0 a 18,18 0 1,1 -36,0 z M 75 275 m -75, 0 a 75,75 0 1,1 150,0 a 75,75 0 1,1 -150,0 z M 75 75 m -75, 0 a 75,75 0 1,1 150,0 a 75,75 0 1,1 -150,0 z M 275 475 m -18, 0 a 18,18 0 1,1 36,0 a 18,18 0 1,1 -36,0 z M 275 275 m -18, 0 a 18,18 0 1,1 36,0 a 18,18 0 1,1 -36,0 z M 275 75 m -75, 0 a 75,75 0 1,1 150,0 a 75,75 0 1,1 -150,0 z " horiz-adv-x="500" unicode="("/>
<glyph d="M 75 475 m -75, 0 a 75,75 0 1,1 150,0 a 75,75 0 1,1 -150,0 z M 75 275 m -75, 0 a 75,75 0 1,1 150,0 a 75,75 0 1,1 -150,0 z M 75 75 m -75, 0 a 75,75 0 1,1 150,0 a 75,75 0 1,1 -150,0 z M 275 475 m -18, 0 a 18,18 0 1,1 36,0 a 18,18 0 1,1 -36,0 z M 275 275 m -18, 0 a 18,18 0 1,1 36,0 a 18,18 0 1,1 -36,0 z M 275 75 m -75, 0 a 75,75 0 1,1 150,0 a 75,75 0 1,1 -150,0 z " horiz-adv-x="500" unicode="v"/>
<glyph d="M 75 475 m -18, 0 a 18,18 0 1,1 36,0 a 18,18 0 1,1 -36,0 z M 75 275 m -18, 0 a 18,18 0 1,1 36,0 a 18,18 0 1,1 -36,0 z M 75 75 m -18, 0 a 18,18 0 1,1 36,0 a 18,18 0 1,1 -36,0 z M 275 475 m -75, 0 a 75,75 0 1,1 150,0 a 75,75 0 1,1 -150,0 z M 275 275 m -18, 0 a 18,18 0 1,1 36,0 a 18,18 0 1,1 -36,0 z M 275 75 m -75, 0 a 75,75 0 1,1 150,0 a 75,75 0 1,1 -150,0 z " horiz-adv-x="500" unicode="¨"/>
<glyph d="M 75 475 m -75, 0 a 75,75 0 1,1 150,0 a 75,75 0 1,1 -150,0 z M 75 275 m -18, 0 a 18,18 0 1,1 36,0 a 18,18 0 1,1 -36,0 z M 75 75 m -18, 0 a 18,18 0 1,1 36,0 a 18,18 0 1,1 -36,0 z M 275 475 m -75, 0 a 75,75 0 1,1 150,0 a 75,75 0 1,1 -150,0 z M 275 275 m -18, 0 a 18,18 0 1,1 36,0 a 18,18 0 1,1 -36,0 z M 275 75 m -75, 0 a 75,75 0 1,1 150,0 a 75,75 0 1,1 -150,0 z " horiz-adv-x="500" unicode="3"/>
<glyph d="M 75 475 m -18, 0 a 18,18 0 1,1 36,0 a 18,18 0 1,1 -36,0 z M 75 275 m -75, 0 a 75,75 0 1,1 150,0 a 75,75 0 1,1 -150,0 z M 75 75 m -18, 0 a 18,18 0 1,1 36,0 a 18,18 0 1,1 -36,0 z M 275 475 m -75, 0 a 75,75 0 1,1 150,0 a 75,75 0 1,1 -150,0 z M 275 275 m -18, 0 a 18,18 0 1,1 36,0 a 18,18 0 1,1 -36,0 z M 275 75 m -75, 0 a 75,75 0 1,1 150,0 a 75,75 0 1,1 -150,0 z " horiz-adv-x="500" unicode="9"/>
<glyph d="M 75 475 m -75, 0 a 75,75 0 1,1 150,0 a 75,75 0 1,1 -150,0 z M 75 275 m -75, 0 a 75,75 0 1,1 150,0 a 75,75 0 1,1 -150,0 z M 75 75 m -18, 0 a 18,18 0 1,1 36,0 a 18,18 0 1,1 -36,0 z M 275 475 m -75, 0 a 75,75 0 1,1 150,0 a 75,75 0 1,1 -150,0 z M 275 275 m -18, 0 a 18,18 0 1,1 36,0 a 18,18 0 1,1 -36,0 z M 275 75 m -75, 0 a 75,75 0 1,1 150,0 a 75,75 0 1,1 -150,0 z " horiz-adv-x="500" unicode="6"/>
<glyph d="M 75 475 m -18, 0 a 18,18 0 1,1 36,0 a 18,18 0 1,1 -36,0 z M 75 275 m -18, 0 a 18,18 0 1,1 36,0 a 18,18 0 1,1 -36,0 z M 75 75 m -75, 0 a 75,75 0 1,1 150,0 a 75,75 0 1,1 -150,0 z M 275 475 m -75, 0 a 75,75 0 1,1 150,0 a 75,75 0 1,1 -150,0 z M 275 275 m -18, 0 a 18,18 0 1,1 36,0 a 18,18 0 1,1 -36,0 z M 275 75 m -75, 0 a 75,75 0 1,1 150,0 a 75,75 0 1,1 -150,0 z " horiz-adv-x="500" unicode="ó"/>
<glyph d="M 75 475 m -75, 0 a 75,75 0 1,1 150,0 a 75,75 0 1,1 -150,0 z M 75 275 m -18, 0 a 18,18 0 1,1 36,0 a 18,18 0 1,1 -36,0 z M 75 75 m -75, 0 a 75,75 0 1,1 150,0 a 75,75 0 1,1 -150,0 z M 275 475 m -75, 0 a 75,75 0 1,1 150,0 a 75,75 0 1,1 -150,0 z M 275 275 m -18, 0 a 18,18 0 1,1 36,0 a 18,18 0 1,1 -36,0 z M 275 75 m -75, 0 a 75,75 0 1,1 150,0 a 75,75 0 1,1 -150,0 z " horiz-adv-x="500" unicode="x"/>
<glyph d="M 75 475 m -18, 0 a 18,18 0 1,1 36,0 a 18,18 0 1,1 -36,0 z M 75 275 m -75, 0 a 75,75 0 1,1 150,0 a 75,75 0 1,1 -150,0 z M 75 75 m -75, 0 a 75,75 0 1,1 150,0 a 75,75 0 1,1 -150,0 z M 275 475 m -75, 0 a 75,75 0 1,1 150,0 a 75,75 0 1,1 -150,0 z M 275 275 m -18, 0 a 18,18 0 1,1 36,0 a 18,18 0 1,1 -36,0 z M 275 75 m -75, 0 a 75,75 0 1,1 150,0 a 75,75 0 1,1 -150,0 z " horiz-adv-x="500" unicode="è"/>
<glyph d="M 75 475 m -75, 0 a 75,75 0 1,1 150,0 a 75,75 0 1,1 -150,0 z M 75 275 m -75, 0 a 75,75 0 1,1 150,0 a 75,75 0 1,1 -150,0 z M 75 75 m -75, 0 a 75,75 0 1,1 150,0 a 75,75 0 1,1 -150,0 z M 275 475 m -75, 0 a 75,75 0 1,1 150,0 a 75,75 0 1,1 -150,0 z M 275 275 m -18, 0 a 18,18 0 1,1 36,0 a 18,18 0 1,1 -36,0 z M 275 75 m -75, 0 a 75,75 0 1,1 150,0 a 75,75 0 1,1 -150,0 z " horiz-adv-x="500" unicode="ç"/>
<glyph d="M 75 475 m -18, 0 a 18,18 0 1,1 36,0 a 18,18 0 1,1 -36,0 z M 75 275 m -18, 0 a 18,18 0 1,1 36,0 a 18,18 0 1,1 -36,0 z M 75 75 m -18, 0 a 18,18 0 1,1 36,0 a 18,18 0 1,1 -36,0 z M 275 475 m -18, 0 a 18,18 0 1,1 36,0 a 18,18 0 1,1 -36,0 z M 275 275 m -75, 0 a 75,75 0 1,1 150,0 a 75,75 0 1,1 -150,0 z M 275 75 m -75, 0 a 75,75 0 1,1 150,0 a 75,75 0 1,1 -150,0 z " horiz-adv-x="500" unicode="„"/>
<glyph d="M 75 475 m -75, 0 a 75,75 0 1,1 150,0 a 75,75 0 1,1 -150,0 z M 75 275 m -18, 0 a 18,18 0 1,1 36,0 a 18,18 0 1,1 -36,0 z M 75 75 m -18, 0 a 18,18 0 1,1 36,0 a 18,18 0 1,1 -36,0 z M 275 475 m -18, 0 a 18,18 0 1,1 36,0 a 18,18 0 1,1 -36,0 z M 275 275 m -75, 0 a 75,75 0 1,1 150,0 a 75,75 0 1,1 -150,0 z M 275 75 m -75, 0 a 75,75 0 1,1 150,0 a 75,75 0 1,1 -150,0 z " horiz-adv-x="500" unicode="5"/>
<glyph d="M 75 475 m -18, 0 a 18,18 0 1,1 36,0 a 18,18 0 1,1 -36,0 z M 75 275 m -75, 0 a 75,75 0 1,1 150,0 a 75,75 0 1,1 -150,0 z M 75 75 m -18, 0 a 18,18 0 1,1 36,0 a 18,18 0 1,1 -36,0 z M 275 475 m -18, 0 a 18,18 0 1,1 36,0 a 18,18 0 1,1 -36,0 z M 275 275 m -75, 0 a 75,75 0 1,1 150,0 a 75,75 0 1,1 -150,0 z M 275 75 m -75, 0 a 75,75 0 1,1 150,0 a 75,75 0 1,1 -150,0 z " horiz-adv-x="500" unicode="."/>
<glyph d="M 75 475 m -75, 0 a 75,75 0 1,1 150,0 a 75,75 0 1,1 -150,0 z M 75 275 m -75, 0 a 75,75 0 1,1 150,0 a 75,75 0 1,1 -150,0 z M 75 75 m -18, 0 a 18,18 0 1,1 36,0 a 18,18 0 1,1 -36,0 z M 275 475 m -18, 0 a 18,18 0 1,1 36,0 a 18,18 0 1,1 -36,0 z M 275 275 m -75, 0 a 75,75 0 1,1 150,0 a 75,75 0 1,1 -150,0 z M 275 75 m -75, 0 a 75,75 0 1,1 150,0 a 75,75 0 1,1 -150,0 z " horiz-adv-x="500" unicode="8"/>
<glyph d="M 75 475 m -18, 0 a 18,18 0 1,1 36,0 a 18,18 0 1,1 -36,0 z M 75 275 m -18, 0 a 18,18 0 1,1 36,0 a 18,18 0 1,1 -36,0 z M 75 75 m -75, 0 a 75,75 0 1,1 150,0 a 75,75 0 1,1 -150,0 z M 275 475 m -18, 0 a 18,18 0 1,1 36,0 a 18,18 0 1,1 -36,0 z M 275 275 m -75, 0 a 75,75 0 1,1 150,0 a 75,75 0 1,1 -150,0 z M 275 75 m -75, 0 a 75,75 0 1,1 150,0 a 75,75 0 1,1 -150,0 z " horiz-adv-x="500" unicode=")"/>
<glyph d="M 75 475 m -75, 0 a 75,75 0 1,1 150,0 a 75,75 0 1,1 -150,0 z M 75 275 m -18, 0 a 18,18 0 1,1 36,0 a 18,18 0 1,1 -36,0 z M 75 75 m -75, 0 a 75,75 0 1,1 150,0 a 75,75 0 1,1 -150,0 z M 275 475 m -18, 0 a 18,18 0 1,1 36,0 a 18,18 0 1,1 -36,0 z M 275 275 m -75, 0 a 75,75 0 1,1 150,0 a 75,75 0 1,1 -150,0 z M 275 75 m -75, 0 a 75,75 0 1,1 150,0 a 75,75 0 1,1 -150,0 z " horiz-adv-x="500" unicode="z"/>
<glyph d="M 75 475 m -18, 0 a 18,18 0 1,1 36,0 a 18,18 0 1,1 -36,0 z M 75 275 m -75, 0 a 75,75 0 1,1 150,0 a 75,75 0 1,1 -150,0 z M 75 75 m -75, 0 a 75,75 0 1,1 150,0 a 75,75 0 1,1 -150,0 z M 275 475 m -18, 0 a 18,18 0 1,1 36,0 a 18,18 0 1,1 -36,0 z M 275 275 m -75, 0 a 75,75 0 1,1 150,0 a 75,75 0 1,1 -150,0 z M 275 75 m -75, 0 a 75,75 0 1,1 150,0 a 75,75 0 1,1 -150,0 z " horiz-adv-x="500" unicode="&quot;"/>
<glyph d="M 75 475 m -75, 0 a 75,75 0 1,1 150,0 a 75,75 0 1,1 -150,0 z M 75 275 m -75, 0 a 75,75 0 1,1 150,0 a 75,75 0 1,1 -150,0 z M 75 75 m -75, 0 a 75,75 0 1,1 150,0 a 75,75 0 1,1 -150,0 z M 275 475 m -18, 0 a 18,18 0 1,1 36,0 a 18,18 0 1,1 -36,0 z M 275 275 m -75, 0 a 75,75 0 1,1 150,0 a 75,75 0 1,1 -150,0 z M 275 75 m -75, 0 a 75,75 0 1,1 150,0 a 75,75 0 1,1 -150,0 z " horiz-adv-x="500" unicode="à"/>
<glyph d="M 75 475 m -18, 0 a 18,18 0 1,1 36,0 a 18,18 0 1,1 -36,0 z M 75 275 m -18, 0 a 18,18 0 1,1 36,0 a 18,18 0 1,1 -36,0 z M 75 75 m -18, 0 a 18,18 0 1,1 36,0 a 18,18 0 1,1 -36,0 z M 275 475 m -75, 0 a 75,75 0 1,1 150,0 a 75,75 0 1,1 -150,0 z M 275 275 m -75, 0 a 75,75 0 1,1 150,0 a 75,75 0 1,1 -150,0 z M 275 75 m -75, 0 a 75,75 0 1,1 150,0 a 75,75 0 1,1 -150,0 z " horiz-adv-x="500" unicode="¸"/>
<glyph d="M 75 475 m -75, 0 a 75,75 0 1,1 150,0 a 75,75 0 1,1 -150,0 z M 75 275 m -18, 0 a 18,18 0 1,1 36,0 a 18,18 0 1,1 -36,0 z M 75 75 m -18, 0 a 18,18 0 1,1 36,0 a 18,18 0 1,1 -36,0 z M 275 475 m -75, 0 a 75,75 0 1,1 150,0 a 75,75 0 1,1 -150,0 z M 275 275 m -75, 0 a 75,75 0 1,1 150,0 a 75,75 0 1,1 -150,0 z M 275 75 m -75, 0 a 75,75 0 1,1 150,0 a 75,75 0 1,1 -150,0 z " horiz-adv-x="500" unicode="4"/>
<glyph d="M 75 475 m -18, 0 a 18,18 0 1,1 36,0 a 18,18 0 1,1 -36,0 z M 75 275 m -75, 0 a 75,75 0 1,1 150,0 a 75,75 0 1,1 -150,0 z M 75 75 m -18, 0 a 18,18 0 1,1 36,0 a 18,18 0 1,1 -36,0 z M 275 475 m -75, 0 a 75,75 0 1,1 150,0 a 75,75 0 1,1 -150,0 z M 275 275 m -75, 0 a 75,75 0 1,1 150,0 a 75,75 0 1,1 -150,0 z M 275 75 m -75, 0 a 75,75 0 1,1 150,0 a 75,75 0 1,1 -150,0 z " horiz-adv-x="500" unicode="w"/>
<glyph d="M 75 475 m -75, 0 a 75,75 0 1,1 150,0 a 75,75 0 1,1 -150,0 z M 75 275 m -75, 0 a 75,75 0 1,1 150,0 a 75,75 0 1,1 -150,0 z M 75 75 m -18, 0 a 18,18 0 1,1 36,0 a 18,18 0 1,1 -36,0 z M 275 475 m -75, 0 a 75,75 0 1,1 150,0 a 75,75 0 1,1 -150,0 z M 275 275 m -75, 0 a 75,75 0 1,1 150,0 a 75,75 0 1,1 -150,0 z M 275 75 m -75, 0 a 75,75 0 1,1 150,0 a 75,75 0 1,1 -150,0 z " horiz-adv-x="500" unicode="7"/>
<glyph d="M 75 475 m -18, 0 a 18,18 0 1,1 36,0 a 18,18 0 1,1 -36,0 z M 75 275 m -18, 0 a 18,18 0 1,1 36,0 a 18,18 0 1,1 -36,0 z M 75 75 m -75, 0 a 75,75 0 1,1 150,0 a 75,75 0 1,1 -150,0 z M 275 475 m -75, 0 a 75,75 0 1,1 150,0 a 75,75 0 1,1 -150,0 z M 275 275 m -75, 0 a 75,75 0 1,1 150,0 a 75,75 0 1,1 -150,0 z M 275 75 m -75, 0 a 75,75 0 1,1 150,0 a 75,75 0 1,1 -150,0 z " horiz-adv-x="500" unicode="0"/>
<glyph d="M 75 475 m -75, 0 a 75,75 0 1,1 150,0 a 75,75 0 1,1 -150,0 z M 75 275 m -18, 0 a 18,18 0 1,1 36,0 a 18,18 0 1,1 -36,0 z M 75 75 m -75, 0 a 75,75 0 1,1 150,0 a 75,75 0 1,1 -150,0 z M 275 475 m -75, 0 a 75,75 0 1,1 150,0 a 75,75 0 1,1 -150,0 z M 275 275 m -75, 0 a 75,75 0 1,1 150,0 a 75,75 0 1,1 -150,0 z M 275 75 m -75, 0 a 75,75 0 1,1 150,0 a 75,75 0 1,1 -150,0 z " horiz-adv-x="500" unicode="y"/>
<glyph d="M 75 475 m -18, 0 a 18,18 0 1,1 36,0 a 18,18 0 1,1 -36,0 z M 75 275 m -75, 0 a 75,75 0 1,1 150,0 a 75,75 0 1,1 -150,0 z M 75 75 m -75, 0 a 75,75 0 1,1 150,0 a 75,75 0 1,1 -150,0 z M 275 475 m -75, 0 a 75,75 0 1,1 150,0 a 75,75 0 1,1 -150,0 z M 275 275 m -75, 0 a 75,75 0 1,1 150,0 a 75,75 0 1,1 -150,0 z M 275 75 m -75, 0 a 75,75 0 1,1 150,0 a 75,75 0 1,1 -150,0 z " horiz-adv-x="500" unicode="ù"/>
<glyph d="M 75 475 m -75, 0 a 75,75 0 1,1 150,0 a 75,75 0 1,1 -150,0 z M 75 275 m -75, 0 a 75,75 0 1,1 150,0 a 75,75 0 1,1 -150,0 z M 75 75 m -75, 0 a 75,75 0 1,1 150,0 a 75,75 0 1,1 -150,0 z M 275 475 m -75, 0 a 75,75 0 1,1 150,0 a 75,75 0 1,1 -150,0 z M 275 275 m -75, 0 a 75,75 0 1,1 150,0 a 75,75 0 1,1 -150,0 z M 275 75 m -75, 0 a 75,75 0 1,1 150,0 a 75,75 0 1,1 -150,0 z " horiz-adv-x="500" unicode="é"/>
</font>
</defs>
</svg>
